<?xml version="1.0" encoding="utf-8"?><!DOCTYPE svg PUBLIC "-//W3C//DTD SVG 1.1//EN" "http://www.w3.org/Graphics/SVG/1.1/DTD/svg11.dtd"><svg xmlns="http://www.w3.org/2000/svg" xmlns:xlink="http://www.w3.org/1999/xlink"><symbol viewBox="0 0 100 125" id="flat"><path d="M37.06 57.826L37.058.624h-6.126c0 32.51.005 66.241.005 98.75 4.819-2.662 10.279-7.855 17.057-12.246 8.402-5.439 19.966-10.391 20.993-20.555 1.701-16.81-23.621-15.567-31.927-8.747zm0 31.053V64.824c3.736-7.363 16.521-7.342 17.494.875 1.239 10.471-12.712 18.02-17.494 23.18z"/></symbol><symbol viewBox="0 0 1792 1792" id="font-awesome--android"><path d="M685 483q16 0 27.5-11.5T724 444t-11.5-27.5T685 405t-27 11.5-11 27.5 11 27.5 27 11.5zm422 0q16 0 27-11.5t11-27.5-11-27.5-27-11.5-27.5 11.5T1068 444t11.5 27.5T1107 483zM295 667q42 0 72 30t30 72v430q0 43-29.5 73t-72.5 30-73-30-30-73V769q0-42 30-72t73-30zm1060 19v666q0 46-32 78t-77 32h-75v227q0 43-30 73t-73 30-73-30-30-73v-227H827v227q0 43-30 73t-73 30q-42 0-72-30t-30-73l-1-227h-74q-46 0-78-32t-32-78V686h918zm-232-405q107 55 171 153.5t64 215.5H433q0-117 64-215.5T669 281l-71-131q-7-13 5-20 13-6 20 6l72 132q95-42 201-42t201 42l72-132q7-12 20-6 12 7 5 20zm477 488v430q0 43-30 73t-73 30q-42 0-72-30t-30-73V769q0-43 30-72.5t72-29.5q43 0 73 29.5t30 72.5z"/></symbol><symbol viewBox="0 0 1792 1792" id="font-awesome--arrows-h"><path d="M1792 896q0 26-19 45l-256 256q-19 19-45 19t-45-19-19-45v-128H384v128q0 26-19 45t-45 19-45-19L19 941Q0 922 0 896t19-45l256-256q19-19 45-19t45 19 19 45v128h1024V640q0-26 19-45t45-19 45 19l256 256q19 19 19 45z"/></symbol><symbol viewBox="0 0 1792 1792" id="font-awesome--arrows-v"><path d="M1216 320q0 26-19 45t-45 19h-128v1024h128q26 0 45 19t19 45-19 45l-256 256q-19 19-45 19t-45-19l-256-256q-19-19-19-45t19-45 45-19h128V384H640q-26 0-45-19t-19-45 19-45L851 19q19-19 45-19t45 19l256 256q19 19 19 45z"/></symbol><symbol viewBox="0 0 1792 1792" id="font-awesome--bar-chart"><path d="M512 896v512H256V896h256zm384-512v1024H640V384h256zm1024 1152v128H-128V128H0v1408h1920zm-640-896v768h-256V640h256zm384-384v1152h-256V256h256z"/></symbol><symbol viewBox="0 0 1792 1792" id="font-awesome--check-square"><path d="M813 1299l614-614q19-19 19-45t-19-45l-102-102q-19-19-45-19t-45 19L768 960 557 749q-19-19-45-19t-45 19L365 851q-19 19-19 45t19 45l358 358q19 19 45 19t45-19zm851-883v960q0 119-84.5 203.5T1376 1664H416q-119 0-203.5-84.5T128 1376V416q0-119 84.5-203.5T416 128h960q119 0 203.5 84.5T1664 416z"/></symbol><symbol viewBox="0 0 1792 1792" id="font-awesome--chevron-circle-left"><path d="M1037 1395l102-102q19-19 19-45t-19-45L832 896l307-307q19-19 19-45t-19-45l-102-102q-19-19-45-19t-45 19L493 851q-19 19-19 45t19 45l454 454q19 19 45 19t45-19zm627-499q0 209-103 385.5T1281.5 1561 896 1664t-385.5-103T231 1281.5 128 896t103-385.5T510.5 231 896 128t385.5 103T1561 510.5 1664 896z"/></symbol><symbol viewBox="0 0 1792 1792" id="font-awesome--chevron-circle-right"><path d="M845 1395l454-454q19-19 19-45t-19-45L845 397q-19-19-45-19t-45 19L653 499q-19 19-19 45t19 45l307 307-307 307q-19 19-19 45t19 45l102 102q19 19 45 19t45-19zm819-499q0 209-103 385.5T1281.5 1561 896 1664t-385.5-103T231 1281.5 128 896t103-385.5T510.5 231 896 128t385.5 103T1561 510.5 1664 896z"/></symbol><symbol viewBox="0 0 1792 1792" id="font-awesome--chevron-left"><path d="M1427 301L896 832l531 531q19 19 19 45t-19 45l-166 166q-19 19-45 19t-45-19L429 877q-19-19-19-45t19-45l742-742q19-19 45-19t45 19l166 166q19 19 19 45t-19 45z"/></symbol><symbol viewBox="0 0 1792 1792" id="font-awesome--chevron-right"><path d="M1363 877l-742 742q-19 19-45 19t-45-19l-166-166q-19-19-19-45t19-45l531-531-531-531q-19-19-19-45t19-45L531 45q19-19 45-19t45 19l742 742q19 19 19 45t-19 45z"/></symbol><symbol viewBox="0 0 1792 1792" id="font-awesome--chrome"><path d="M893 0q240-2 451 120 232 134 352 372l-742-39q-160-9-294 74.5T475 757L199 333Q327 174 510 87.5T893 0zM146 405l337 663q72 143 211 217t293 45l-230 451q-212-33-385-157.5t-272.5-316T0 896q0-267 146-491zm1586 169q58 150 59.5 310.5t-48.5 306-153 272-246 209.5q-230 133-498 119l405-623q88-131 82.5-290.5T1227 600zm-836 20q125 0 213.5 88.5T1198 896t-88.5 213.5T896 1198t-213.5-88.5T594 896t88.5-213.5T896 594z"/></symbol><symbol viewBox="0 0 1792 1792" id="font-awesome--compress"><path d="M896 960v448q0 26-19 45t-45 19-45-19l-144-144-332 332q-10 10-23 10t-23-10l-114-114q-10-10-10-23t10-23l332-332-144-144q-19-19-19-45t19-45 45-19h448q26 0 45 19t19 45zm755-672q0 13-10 23l-332 332 144 144q19 19 19 45t-19 45-45 19H960q-26 0-45-19t-19-45V384q0-26 19-45t45-19 45 19l144 144 332-332q10-10 23-10t23 10l114 114q10 10 10 23z"/></symbol><symbol viewBox="0 0 1792 1792" id="font-awesome--edge"><path d="M69 795h1q16-126 58.5-241.5t115-217 167.5-176T634.5 43 911 0q231 0 414 105.5T1619 409q104 187 104 442v188H598q1 111 53.5 192.5T788 1354t189.5 57 213 3 208-46.5T1572 1283v377q-92 55-229.5 92t-312.5 38-316-53q-189-73-311.5-249T278 1116q-3-242 111-412t325-268q-48 60-78 125.5T590 721h635q8-77-8-140t-47-101.5-70.5-66.5-80.5-41-75-20.5-56-8.5l-22-1q-135 5-259.5 44.5T383 491 207 631.5 69 795z"/></symbol><symbol viewBox="0 0 1792 1792" id="font-awesome--expand"><path d="M883 1056q0 13-10 23l-332 332 144 144q19 19 19 45t-19 45-45 19H192q-26 0-45-19t-19-45v-448q0-26 19-45t45-19 45 19l144 144 332-332q10-10 23-10t23 10l114 114q10 10 10 23zm781-864v448q0 26-19 45t-45 19-45-19l-144-144-332 332q-10 10-23 10t-23-10L919 759q-10-10-10-23t10-23l332-332-144-144q-19-19-19-45t19-45 45-19h448q26 0 45 19t19 45z"/></symbol><symbol viewBox="0 0 1792 1792" id="font-awesome--eye"><path d="M1664 960q-152-236-381-353 61 104 61 225 0 185-131.5 316.5T896 1280t-316.5-131.5T448 832q0-121 61-225-229 117-381 353 133 205 333.5 326.5T896 1408t434.5-121.5T1664 960zM944 576q0-20-14-34t-34-14q-125 0-214.5 89.5T592 832q0 20 14 34t34 14 34-14 14-34q0-86 61-147t147-61q20 0 34-14t14-34zm848 384q0 34-20 69-140 230-376.5 368.5T896 1536t-499.5-139T20 1029Q0 994 0 960t20-69q140-229 376.5-368T896 384t499.5 139T1772 891q20 35 20 69z"/></symbol><symbol viewBox="0 0 1792 1792" id="font-awesome--file-text-o"><path d="M1596 380q28 28 48 76t20 88v1152q0 40-28 68t-68 28H224q-40 0-68-28t-28-68V96q0-40 28-68t68-28h896q40 0 88 20t76 48zm-444-244v376h376q-10-29-22-41l-313-313q-12-12-41-22zm384 1528V640h-416q-40 0-68-28t-28-68V128H256v1536h1280zM512 800q0-14 9-23t23-9h704q14 0 23 9t9 23v64q0 14-9 23t-23 9H544q-14 0-23-9t-9-23v-64zm736 224q14 0 23 9t9 23v64q0 14-9 23t-23 9H544q-14 0-23-9t-9-23v-64q0-14 9-23t23-9h704zm0 256q14 0 23 9t9 23v64q0 14-9 23t-23 9H544q-14 0-23-9t-9-23v-64q0-14 9-23t23-9h704z"/></symbol><symbol viewBox="0 0 1792 1792" id="font-awesome--firefox"><path d="M903 1792q-283 0-504.5-150.5T69 1243Q11 1112 2 942t26-332.5 111-312T318 55l-11 281q11-14 68-15.5t70 15.5q42-81 160.5-138T840 139q-54 45-119.5 148.5T662 451q25 8 62.5 13.5t63 7.5 68 4 50.5 3q15 5 9.5 45.5T885 600q-5 7-16.5 18.5T812 654t-101 34l15 189-139-67q-18 43-7.5 81.5t36 66.5 65.5 41.5 81 6.5q51-9 98-34.5t83.5-45T1017 909q61 4 89.5 33t19.5 65q-1 2-2.5 5.5t-8.5 12.5-18 15.5-31.5 10.5-46.5 1q-60 95-144.5 135.5T665 1217q74 61 162.5 82.5t168.5 6 154.5-52 128-87.5 80.5-104q43-91 39-192.5T1360.5 681 1282 556q87 38 137 79.5t77 112.5q15-170-57.5-343T1229 121q265 77 412 279.5T1792 918q2 127-40.5 255T1628 1411t-189 196-247.5 135.5T903 1792z"/></symbol><symbol viewBox="0 0 1792 1792" id="font-awesome--internet-explorer"><path d="M1792 937q0 56-7 104H634q0 146 109.5 244.5T1001 1384q99 0 185.5-46.5T1323 1207h423q-56 159-170.5 281T1308 1676.5 987 1743q-187 0-356-83-228 116-394 116-237 0-237-263 0-115 45-275 17-60 109-229 199-360 475-606-184 79-427 354 63-274 283.5-449.5T987 132q30 0 45 1 255-117 433-117 64 0 116 13t94.5 40.5T1742 146t24 115q0 116-75 286 101 182 101 390zm-70-640q0-83-53-132t-137-49q-108 0-254 70 121 47 222.5 131.5T1671 513q51-135 51-216zM128 1534q0 86 48.5 132.5T311 1713q115 0 266-83-122-72-213.5-183T226 1202q-98 205-98 332zm504-713h728q-5-142-113-237t-251-95q-144 0-251.5 95T632 821z"/></symbol><symbol viewBox="0 0 1792 1792" id="font-awesome--language"><path d="M782 1078q-1 3-12.5-.5T738 1066l-20-9q-44-20-87-49-7-5-41-31.5T552 948q-67 103-134 181-81 95-105 110-4 2-19.5 4t-18.5 0q6-4 82-92 21-24 85.5-115T521 918q17-30 51-98.5t36-77.5q-8-1-110 33-8 2-27.5 7.5T436 792t-17 5q-2 2-2 10.5t-1 9.5q-5 10-31 15-23 7-47 0-18-4-28-21-4-6-5-23 6-2 24.5-5t29.5-6q58-16 105-32 100-35 102-35 10-2 43-19.5t44-21.5q9-3 21.5-8t14.5-5.5 6 .5q2 12-1 33 0 2-12.5 27T655 769.5 638 803q-25 50-77 131l64 28q12 6 74.5 32t67.5 28q4 1 10.5 25.5t4.5 30.5zM577 592q3 15-4 28-12 23-50 38-30 12-60 12-26-3-49-26-14-15-18-41l1-3q3 3 19.5 5t26.5 0 58-16q36-12 55-14 17 0 21 17zm698 129l63 227-139-42zM167 1521l694-232V257L167 490v1031zm1241-317l102 31-181-657-100-31-216 536 102 31 45-110 211 65zM905 242l573 184V46zm311 1323l158 13-54 160-40-66q-130 83-276 108-58 12-91 12h-84q-79 0-199.5-39T446 1668q-8-7-8-16 0-8 5-13.5t13-5.5q4 0 18 7.5t30.5 16.5 20.5 11q73 37 159.5 61.5T842 1754q95 0 167-14.5t157-50.5q15-7 30.5-15.5t34-19 28.5-16.5zm448-1079v1079l-774-246q-14 6-375 127.5T147 1568q-13 0-18-13 0-1-1-3V474q3-9 4-10 5-6 20-11 106-35 149-50V19l558 198q2 0 160.5-55t316-108.5T1497 0q20 0 20 21v418z"/></symbol><symbol viewBox="0 0 1792 1792" id="font-awesome--minus"><path d="M1600 736v192q0 40-28 68t-68 28H288q-40 0-68-28t-28-68V736q0-40 28-68t68-28h1216q40 0 68 28t28 68z"/></symbol><symbol viewBox="0 0 1792 1792" id="font-awesome--music"><path d="M1664 224v1120q0 50-34 89t-86 60.5-103.5 32-96.5 10.5-96.5-10.5-103.5-32-86-60.5-34-89 34-89 86-60.5 103.5-32 96.5-10.5q105 0 192 39V654L768 891v709q0 50-34 89t-86 60.5-103.5 32T448 1792t-96.5-10.5-103.5-32-86-60.5-34-89 34-89 86-60.5 103.5-32T448 1408q105 0 192 39V480q0-31 19-56.5t49-35.5l832-256q12-4 28-4 40 0 68 28t28 68z"/></symbol><symbol viewBox="0 0 1792 1792" id="font-awesome--pause"><path d="M1664 192v1408q0 26-19 45t-45 19h-512q-26 0-45-19t-19-45V192q0-26 19-45t45-19h512q26 0 45 19t19 45zm-896 0v1408q0 26-19 45t-45 19H192q-26 0-45-19t-19-45V192q0-26 19-45t45-19h512q26 0 45 19t19 45z"/></symbol><symbol viewBox="0 0 1792 1792" id="font-awesome--play"><path d="M1576 927L248 1665q-23 13-39.5 3t-16.5-36V160q0-26 16.5-36t39.5 3l1328 738q23 13 23 31t-23 31z"/></symbol><symbol viewBox="0 0 1792 1792" id="font-awesome--plus"><path d="M1600 736v192q0 40-28 68t-68 28h-416v416q0 40-28 68t-68 28H800q-40 0-68-28t-28-68v-416H288q-40 0-68-28t-28-68V736q0-40 28-68t68-28h416V224q0-40 28-68t68-28h192q40 0 68 28t28 68v416h416q40 0 68 28t28 68z"/></symbol><symbol viewBox="0 0 1792 1792" id="font-awesome--print"><path d="M448 1536h896v-256H448v256zm0-640h896V512h-160q-40 0-68-28t-28-68V256H448v640zm1152 64q0-26-19-45t-45-19-45 19-19 45 19 45 45 19 45-19 19-45zm128 0v416q0 13-9.5 22.5t-22.5 9.5h-224v160q0 40-28 68t-68 28H416q-40 0-68-28t-28-68v-160H96q-13 0-22.5-9.5T64 1376V960q0-79 56.5-135.5T256 768h64V224q0-40 28-68t68-28h672q40 0 88 20t76 48l152 152q28 28 48 76t20 88v256h64q79 0 135.5 56.5T1728 960z"/></symbol><symbol viewBox="0 0 1792 1792" id="font-awesome--safari"><path d="M949 893q0 26-16.5 45T891 957q-26 0-45-16.5T827 899q0-26 17-45t42-19 44 16.5 19 41.5zm15 58l350-581q-9 8-67.5 62.5T1121 549 984.5 676t-117 110.5T817 838l-349 580q7-7 67-62t126-116.5 136-127 117-111 50-50.5zm647-55q0 201-104 371-3-2-17-11t-26.5-16.5-16.5-7.5q-13 0-13 13 0 10 59 44-74 112-184.5 190.5T1067 1590l-16-67q-1-10-15-10-5 0-8 5.5t-2 9.5l16 68q-72 15-146 15-199 0-372-105 1-2 13-20.5t21.5-33.5 9.5-19q0-13-13-13-6 0-17 14.5t-22.5 34.5-13.5 23q-113-75-192-187.5T200 1060l69-15q10-3 10-15 0-5-5.5-8t-10.5-2l-68 15q-14-72-14-139 0-206 109-379 2 1 18.5 12t30 19 17.5 8q13 0 13-12 0-6-12.5-15.5T324 507l-20-12q77-112 189-189t244-107l15 67q2 10 15 10 5 0 8-5.5t2-10.5l-15-66q71-13 134-13 204 0 379 109-39 56-39 65 0 13 12 13 11 0 48-64 111 75 187.5 186T1591 731l-56 12q-10 2-10 16 0 5 5.5 8t9.5 2l57-13q14 72 14 140zm85 0q0-163-63.5-311T1462 330t-255-170.5T896 96t-311 63.5T330 330 159.5 585 96 896t63.5 311T330 1462t255 170.5 311 63.5 311-63.5 255-170.5 170.5-255 63.5-311zm96 0q0 182-71 348t-191 286-286 191-348 71-348-71-286-191-191-286T0 896t71-348 191-286T548 71 896 0t348 71 286 191 191 286 71 348z"/></symbol><symbol viewBox="0 0 1792 1792" id="font-awesome--search"><path d="M1216 832q0-185-131.5-316.5T768 384 451.5 515.5 320 832t131.5 316.5T768 1280t316.5-131.5T1216 832zm512 832q0 52-38 90t-90 38q-54 0-90-38l-343-342q-179 124-399 124-143 0-273.5-55.5t-225-150-150-225T64 832t55.5-273.5 150-225 225-150T768 128t273.5 55.5 225 150 150 225T1472 832q0 220-124 399l343 343q37 37 37 90z"/></symbol><symbol viewBox="0 0 1792 1792" id="font-awesome--search-minus"><path d="M1088 800v64q0 13-9.5 22.5T1056 896H480q-13 0-22.5-9.5T448 864v-64q0-13 9.5-22.5T480 768h576q13 0 22.5 9.5t9.5 22.5zm128 32q0-185-131.5-316.5T768 384 451.5 515.5 320 832t131.5 316.5T768 1280t316.5-131.5T1216 832zm512 832q0 53-37.5 90.5T1600 1792q-54 0-90-38l-343-342q-179 124-399 124-143 0-273.5-55.5t-225-150-150-225T64 832t55.5-273.5 150-225 225-150T768 128t273.5 55.5 225 150 150 225T1472 832q0 220-124 399l343 343q37 37 37 90z"/></symbol><symbol viewBox="0 0 1792 1792" id="font-awesome--search-plus"><path d="M1088 800v64q0 13-9.5 22.5T1056 896H832v224q0 13-9.5 22.5T800 1152h-64q-13 0-22.5-9.5T704 1120V896H480q-13 0-22.5-9.5T448 864v-64q0-13 9.5-22.5T480 768h224V544q0-13 9.5-22.5T736 512h64q13 0 22.5 9.5T832 544v224h224q13 0 22.5 9.5t9.5 22.5zm128 32q0-185-131.5-316.5T768 384 451.5 515.5 320 832t131.5 316.5T768 1280t316.5-131.5T1216 832zm512 832q0 53-37.5 90.5T1600 1792q-54 0-90-38l-343-342q-179 124-399 124-143 0-273.5-55.5t-225-150-150-225T64 832t55.5-273.5 150-225 225-150T768 128t273.5 55.5 225 150 150 225T1472 832q0 220-124 399l343 343q37 37 37 90z"/></symbol><symbol viewBox="0 0 1792 1792" id="font-awesome--square-o"><path d="M1312 256H480q-66 0-113 47t-47 113v832q0 66 47 113t113 47h832q66 0 113-47t47-113V416q0-66-47-113t-113-47zm288 160v832q0 119-84.5 203.5T1312 1536H480q-119 0-203.5-84.5T192 1248V416q0-119 84.5-203.5T480 128h832q119 0 203.5 84.5T1600 416z"/></symbol><symbol viewBox="0 0 1792 1792" id="font-awesome--step-backward"><path d="M1363 141q19-19 32-13t13 32v1472q0 26-13 32t-32-13L653 941q-9-9-13-19v678q0 26-19 45t-45 19H448q-26 0-45-19t-19-45V192q0-26 19-45t45-19h128q26 0 45 19t19 45v678q4-11 13-19z"/></symbol><symbol viewBox="0 0 1792 1792" id="font-awesome--stop"><path d="M1664 192v1408q0 26-19 45t-45 19H192q-26 0-45-19t-19-45V192q0-26 19-45t45-19h1408q26 0 45 19t19 45z"/></symbol><symbol viewBox="0 0 1792 1792" id="font-awesome--undo"><path d="M1664 896q0 156-61 298t-164 245-245 164-298 61q-172 0-327-72.5T305 1387q-7-10-6.5-22.5t8.5-20.5l137-138q10-9 25-9 16 2 23 12 73 95 179 147t225 52q104 0 198.5-40.5T1258 1258t109.5-163.5T1408 896t-40.5-198.5T1258 534t-163.5-109.5T896 384q-98 0-188 35.5T548 521l137 138q31 30 14 69-17 40-59 40H192q-26 0-45-19t-19-45V256q0-42 40-59 39-17 69 14l130 129q107-101 244.5-156.5T896 128q156 0 298 61t245 164 164 245 61 298z"/></symbol><symbol viewBox="0 0 20 25" id="instrument"><path d="M12.1 9.3l1.2-1.2s.1-.1.2-.1l6.2-1c.3-.1.5-.4.2-.7L13.7.1c-.3-.2-.6-.1-.7.2l-1 6.2c0 .1-.1.2-.1.2L9.5 9.1l-.8-.8c-.4-.4-1-.4-1.4 0-.4.4-.4 1 0 1.4l.8.8-.6.6-.8-.8c-.4-.4-1-.4-1.4 0-.4.4-.4 1 0 1.4l.8.8-4.4 4.4c-.4-.4-1-.4-1.4 0-.4.4-.4 1 0 1.4l1.4 1.4c.4.4 1 .4 1.4 0 .4-.4.4-1 0-1.4l2.4-2.4c.2.6.6 1.2 1.1 1.6 1.4 1.1 3.5.8 4.8-.4l1.8-1.8c1.3-1.3 1.5-3.4.4-4.8-.4-.6-.9-1-1.5-1.2zm-.1 4.4l-2.1 2.1c-.6.6-1.5.6-2.1 0-.6-.6-.6-1.5 0-2.1l2.1-2.1c.6-.6 1.5-.6 2.1 0 .6.5.6 1.5 0 2.1z"/></symbol><symbol viewBox="0 0 28 40" id="metronome"><path d="M27.728 6.314a1 1 0 0 0-1.414-.042l-1.386 1.305c-.426.401-1.012.536-1.594.474-.884-.095-1.807.18-2.455.828a2.978 2.978 0 0 0-.865 2.397c.055.549-.172 1.088-.574 1.466l-1.463 1.377-1.589-12.367C16.26.751 15.386 0 14.35 0h-8.7C4.614 0 3.74.751 3.612 1.752l-3.595 28C-.137 30.946.819 32 2.055 32h15.89c1.236 0 2.192-1.054 2.039-2.248L18.291 16.57l2.34-2.202c.442-.416 1.064-.608 1.652-.458a2.981 2.981 0 0 0 2.838-.788 2.982 2.982 0 0 0 .84-2.587c-.105-.625.083-1.262.544-1.696l1.18-1.111a1 1 0 0 0 .043-1.414zM9 19c0 .552-.487 1-1.055 1H4.503c-.618 0-1.096-.527-1.019-1.124l1.798-14c.063-.5.5-.876 1.018-.876h7.4c.518 0 .955.376 1.019.876l1.41 10.982-4.345 4.089C11.344 19.831 11 19.46 11 19V9c0-.552-.433-1-1-1s-1 .448-1 1v10zm7.517-.124c.076.597-.402 1.124-1.02 1.124h-.851l1.797-1.691.074.567zm7.19-7.169a1.022 1.022 0 0 1-1.414 0c-.189-.189-.293-.44-.293-.707s.104-.518.293-.707c.189-.189.44-.293.707-.293s.518.104.707.293c.189.189.293.44.293.707s-.104.518-.293.707z"/></symbol><symbol viewBox="0 0 24 24" id="metronome_material"><path d="M12 1.75l-3.43.92-4.51 16.86c-.03.15-.06.31-.06.47 0 1.11.89 2 2 2h12c1.11 0 2-.89 2-2 0-.16-.03-.32-.06-.47l-1.36-5.11L17 16l.2 1h-3.79l2.84-2.84-1.41-1.41L10.59 17H6.8l3.49-13h3.42l1.46 5.43 1.63-1.64-1.37-5.12L12 1.75M11.25 5v9.75l1.5-1.5V5h-1.5m8.54 2.8l-2.83 2.83-.71-.71-1.41 1.42 2.82 2.82 1.42-1.41-.71-.71 2.83-2.83-1.41-1.41z"/></symbol><symbol viewBox="0 0 100 125" id="perform"><path d="M14 40L5 50l9 10zM19.5 8v84h61V8zm3 3h55v78h-55z" color="#000"/><path d="M33.5 20.5h39v5h-39zM27.5 29.5h45v5h-45zM27.5 38.5h45v5h-45zM27.5 47.5h45v5h-45zM27.5 56.5h45v5h-45zM27.5 65.5h45v5h-45zM27.5 74.5h29v5h-29zM86 40l9 10-9 10z" color="#000"/></symbol><symbol viewBox="0 0 100 125" id="piano"><path d="M0 0v100h100V0H0zm4 96V4h14v64h6v28H4zm24 0V68h6V4h8v64h6v28H28zm24 0V68h6V4h8v64h6v28H52zm44 0H76V68h6V4h14v92z"/></symbol><symbol viewBox="0 0 100 125" id="scroll"><path d="M11.25 5v90h61V5zm3 3h55v84h-55z" color="#000"/><path d="M25.25 13.5h39v7h-39zM19.25 24.5h45v7h-45zM19.25 35.5h45v7h-45zM19.25 46.5h45v7h-45zM19.25 57.5h45v7h-45zM19.25 68.5h45v7h-45zM19.25 79.5h29v7h-29zM76.75 52.5l7 9 7-9zM76.75 47.5l7-9 7 9z" color="#000"/></symbol><symbol viewBox="0 0 100 125" id="sharp"><path fill="none" d="M45.964 62.034l8.773-2.314V39.79l-8.773 2.387z"/><path d="M64.623 37.101v-13.26l-6.027 1.592V.216h-3.858V26.45l-8.773 2.314V3.591h-3.857V29.78l-6.729 1.775v13.502l6.729-1.83v19.824l-6.729 1.775v13.5l6.729-1.83v23.287h3.857V75.448l8.773-2.387v23.348h3.858V72.011l6.027-1.639v-13.26l-6.027 1.59V38.741l6.027-1.64zM54.737 59.72l-8.773 2.314V42.177l8.773-2.387v19.93z"/></symbol></svg>